<!-- Generator: Adobe Illustrator 24.3.0, SVG Export Plug-In . SVG Version: 6.00 Build 0)  -->
<svg version="1.1" id="Layer_1" xmlns="http://www.w3.org/2000/svg" xmlns:xlink="http://www.w3.org/1999/xlink" x="0px" y="0px"
	 viewBox="0 0 377.9 100" style="enable-background:new 0 0 377.9 100;" xml:space="preserve">
<style type="text/css">
	.st0{stroke:#000000;stroke-width:4;stroke-miterlimit:10;}
	.st1{font-family:'Sriracha-Regular';}
	.st2{font-size:60px;}
	.st3{stroke:#000000;stroke-width:3;stroke-miterlimit:10;}
	.st4{stroke:#000000;stroke-width:2;stroke-miterlimit:10;}
</style>
<path class="st0" d="M50,5c-24.9,0-45,20.1-45,45s20.1,45,45,45s45-20.1,45-45S75,5,50,5z M50,93c-23.7,0-43-19.3-43-43S26.3,7,50,7
	s43,19.3,43,43c0,11.4-4.5,22.3-12.6,30.4C72.5,88.5,61.5,93,50,93z"/>
<text transform="matrix(1 0 0 1 105.6085 73.5996)" class="st1 st2">MrDarked</text>
<path class="st3" d="M55.5,31.8c0,0.7,0,1.3,0,2c10.7,4.1,15.9,15.8,12.3,25.3c-3.1,8.1-12,13.1-20.6,11.8
	c-11.1-1.8-18.1-13.8-15.5-23.8c2.4-9.3,12-12.9,12.9-13.2c0-0.7,0-1.4,0-2.1C33.2,35.2,26.7,47.2,30,58.1c3,10.1,13.6,16.5,24,14.5
	C65.9,70.4,73,57.7,70.4,47C67.8,36,56.2,32.1,55.5,31.8z"/>
<path class="st4" d="M49,46c0,0.6,0.4,1,1,1s1-0.4,1-1V28c0-0.6-0.4-1-1-1s-1,0.4-1,1V46z"/>
</svg>
