<?xml version="1.0" encoding="utf-8"?>
<!-- Generator: Adobe Illustrator 24.3.0, SVG Export Plug-In . SVG Version: 6.00 Build 0)  -->
<svg version="1.1" id="Layer_1" xmlns="http://www.w3.org/2000/svg" xmlns:xlink="http://www.w3.org/1999/xlink" x="0px" y="0px"
	 viewBox="0 0 377.9 100" style="enable-background:new 0 0 377.9 100;" xml:space="preserve">
<style type="text/css">
	.st0{stroke:#000000;stroke-width:4;stroke-miterlimit:10;}
	.st1{font-family:'Sriracha-Regular';}
	.st2{font-size:60px;}
</style>
<path class="st0" d="M50,5c-24.9,0-45,20.1-45,45s20.1,45,45,45s45-20.1,45-45S75,5,50,5z M50,93c-23.7,0-43-19.3-43-43S26.3,7,50,7
	s43,19.3,43,43c0,11.4-4.5,22.3-12.6,30.4C72.5,88.5,61.5,93,50,93z"/>
<text transform="matrix(1 0 0 1 105.6085 73.5996)" class="st1 st2">MrDarked</text>
<path class="st0" d="M69.4,47.8L40.6,29.4c-0.4-0.3-0.9-0.4-1.4-0.4c-0.7,0-1.3,0.3-1.8,0.7c-0.5,0.5-0.8,1.2-0.8,1.9v36.7
	c0,0.7,0.3,1.4,0.8,1.9c0.5,0.5,1.1,0.7,1.8,0.7c0.5,0,1-0.1,1.4-0.4l28.8-18.4c1.2-0.8,1.6-2.4,0.8-3.7C70,48.2,69.7,48,69.4,47.8z
	 M68.3,50.5L39.5,68.9C39.4,69,39.3,69,39.2,69c-0.2,0-0.3-0.1-0.4-0.2c-0.1-0.1-0.2-0.3-0.2-0.5V31.6c0-0.2,0.1-0.3,0.2-0.5
	c0.1-0.1,0.3-0.2,0.4-0.2c0.1,0,0.2,0,0.3,0.1l28.8,18.4c0.3,0.2,0.4,0.6,0.2,0.9C68.5,50.4,68.4,50.5,68.3,50.5z"/>
</svg>
