<?xml version="1.0" encoding="utf-8"?>
<!-- Generator: Adobe Illustrator 24.3.0, SVG Export Plug-In . SVG Version: 6.00 Build 0)  -->
<svg version="1.1" id="Layer_1" xmlns="http://www.w3.org/2000/svg" xmlns:xlink="http://www.w3.org/1999/xlink" x="0px" y="0px"
	 viewBox="0 0 377.9 100" style="enable-background:new 0 0 377.9 100;" xml:space="preserve">
<style type="text/css">
	.st0{stroke:#000000;stroke-width:4;stroke-miterlimit:10;}
	.st1{font-family:'Sriracha-Regular';}
	.st2{font-size:60px;}
</style>
<path class="st0" d="M50,5c-24.9,0-45,20.1-45,45s20.1,45,45,45s45-20.1,45-45S75,5,50,5z M50,93c-23.7,0-43-19.3-43-43S26.3,7,50,7
	s43,19.3,43,43c0,11.4-4.5,22.3-12.6,30.4C72.5,88.5,61.5,93,50,93z"/>
<path class="st0" d="M72.9,41.7c-0.6-6-5.7-10.6-11.8-10.7l0,0c-2.4,0-4.6,0.8-6.6,2.2c-1.5,1.1-2.9,2.4-4,3.9
	c-0.2,0.3-0.4,0.6-0.6,0.8c-0.2-0.3-0.4-0.5-0.6-0.8c-1.1-1.5-2.5-2.8-4-3.9c-1.9-1.4-4.2-2.1-6.6-2.2l0,0
	c-6.1,0.1-11.1,4.7-11.8,10.7l0,0c0,0.5-0.1,1.7-0.1,2c0,3.2,1.4,6.6,3.4,9.8c3.2,4.8,7,9.2,11.4,13c3.9,3.5,7.1,6,7.6,6.3
	c0.4,0.3,0.8,0.3,1.2,0c4.1-3.1,8-6.5,11.6-10.2c2.8-2.8,5.2-5.8,7.4-9.1c2-3.2,3.4-6.5,3.4-9.8C73,43.5,73,42.3,72.9,41.7
	L72.9,41.7z M56.9,65c-3,2.8-5.7,4.9-6.9,5.8c-3.8-2.9-7.4-6.1-10.8-9.5c-2.7-2.7-5.1-5.6-7.1-8.8c-1.9-3-3.1-6.1-3.1-8.7
	c0-0.1,0-1.4,0.1-1.8c0.5-5,4.8-8.8,9.8-8.9c2,0,3.9,0.7,5.5,1.8c1.3,1,2.5,2.1,3.5,3.4c0.3,0.5,0.7,0.9,1,1.4
	c0.1,0.2,0.2,0.3,0.2,0.4l0.1,0.1l0,0l0,0c0.2,0.5,0.8,0.7,1.3,0.4c0.2-0.1,0.3-0.3,0.4-0.4l0,0c0.4-0.7,0.8-1.4,1.3-2
	c1-1.3,2.2-2.5,3.5-3.4c1.6-1.1,3.5-1.8,5.5-1.8c5,0.1,9.3,3.9,9.8,8.9c0,0.4,0.1,1.7,0.1,1.8c0,2.7-1.2,5.7-3.1,8.7
	C64.8,57.1,61.1,61.3,56.9,65L56.9,65z"/>
<text transform="matrix(1 0 0 1 105.6085 73.5996)" class="st1 st2">MrDarked</text>
</svg>
