<?xml version="1.0" encoding="utf-8"?>
<!-- Generator: Adobe Illustrator 24.3.0, SVG Export Plug-In . SVG Version: 6.00 Build 0)  -->
<svg version="1.1" id="Layer_1" xmlns="http://www.w3.org/2000/svg" xmlns:xlink="http://www.w3.org/1999/xlink" x="0px" y="0px"
	 viewBox="0 0 377.9 100" style="enable-background:new 0 0 377.9 100;" xml:space="preserve">
<style type="text/css">
	.st0{stroke:#000000;stroke-width:4;stroke-miterlimit:10;}
	.st1{font-family:'Sriracha-Regular';}
	.st2{font-size:60px;}
</style>
<path class="st0" d="M50,5c-24.9,0-45,20.1-45,45s20.1,45,45,45s45-20.1,45-45S75,5,50,5z M50,93c-23.7,0-43-19.3-43-43S26.3,7,50,7
	s43,19.3,43,43c0,11.4-4.5,22.3-12.6,30.4C72.5,88.5,61.5,93,50,93z"/>
<text transform="matrix(1 0 0 1 105.6085 73.5996)" class="st1 st2">MrDarked</text>
<path class="st0" d="M69.2,41h-9.4c-0.7,0-1.4-0.4-1.7-1.1l-4.6-10.7l0,0c-0.3-0.7-0.8-1.3-1.5-1.7c-1.2-0.7-2.8-0.7-4,0
	c-0.7,0.4-1.2,1-1.5,1.7l0,0L42,39.9c-0.3,0.7-1,1.1-1.7,1.1h-9.4c-1,0-2.1,0.4-2.8,1.2c-0.7,0.7-1,1.6-1.1,2.6c0,1,0.4,2,1.1,2.7
	l0,0l7.6,7c0.5,0.4,0.6,1.1,0.5,1.7l-3.4,12c-0.1,0.3-0.1,0.7-0.1,1c0,1,0.4,2,1.2,2.7c1.2,1.2,3.1,1.4,4.5,0.6l0,0l10.8-6.3
	c0.6-0.3,1.2-0.3,1.8,0l10.8,6.3l0,0c1.5,0.8,3.3,0.6,4.5-0.6c0.7-0.7,1.2-1.7,1.2-2.7c0-0.4,0-0.7-0.1-1l-3.4-12
	c0-0.2-0.1-0.3-0.1-0.5c0-0.5,0.2-0.9,0.5-1.2l7.6-7l0,0c0.7-0.7,1.1-1.7,1.1-2.7c0-1-0.4-1.9-1.1-2.6C71.3,41.4,70.3,41,69.2,41z
	 M64.9,70.5c-0.3,0.3-0.8,0.5-1.3,0.5c-0.3,0-0.6-0.1-0.9-0.2l-10.8-6.3l0,0c-1.2-0.6-2.6-0.6-3.7,0l0,0l-10.8,6.3
	c-0.3,0.2-0.6,0.2-0.9,0.2c-0.5,0-0.9-0.2-1.3-0.5c-0.3-0.3-0.5-0.8-0.5-1.2c0-0.2,0-0.3,0.1-0.5l3.4-12c0.4-1.3,0-2.7-1-3.7l0,0
	l-7.6-7c-0.3-0.3-0.5-0.8-0.5-1.2c0-0.5,0.2-0.9,0.5-1.2c0.3-0.4,0.8-0.6,1.3-0.6h9.4c1.5,0,2.9-0.9,3.5-2.2l0,0l4.6-10.7
	c0.1-0.3,0.4-0.6,0.7-0.8c0.6-0.4,1.4-0.4,2,0c0.3,0.2,0.6,0.5,0.7,0.8l4.6,10.7l0,0c0.6,1.4,2,2.3,3.5,2.2h9.4c0.5,0,1,0.2,1.3,0.6
	c0.3,0.3,0.5,0.8,0.5,1.2c0,0.5-0.2,0.9-0.5,1.2l-7.6,7l0,0c-1,1-1.4,2.4-1,3.7l3.4,12c0,0.2,0.1,0.3,0.1,0.5
	C65.4,69.7,65.2,70.2,64.9,70.5z"/>
</svg>
