<?xml version="1.0" encoding="utf-8"?>
<!-- Generator: Adobe Illustrator 24.3.0, SVG Export Plug-In . SVG Version: 6.00 Build 0)  -->
<svg version="1.1" id="Layer_1" xmlns="http://www.w3.org/2000/svg" xmlns:xlink="http://www.w3.org/1999/xlink" x="0px" y="0px"
	 viewBox="0 0 377.9 100" style="enable-background:new 0 0 377.9 100;" xml:space="preserve">
<style type="text/css">
	.st0{font-family:'Sriracha-Regular';}
	.st1{font-size:60px;}
	.st2{fill:none;stroke:#000000;stroke-width:5;stroke-linecap:round;stroke-linejoin:round;stroke-miterlimit:10;}
</style>
<text transform="matrix(1 0 0 1 105.6085 73.5996)" class="st0 st1">MrDarked</text>
<path class="st2" d="M92.4,47.4c-1.9-24.3-23.6-42-46.2-39.3C24,10.7,8.4,31.6,10.2,53.5C12.2,75.6,31.7,93.6,54,92.1
	c34.8-2.4,39.1-36.2,38.6-37.7"/>
<path class="st2" d="M31.4,67.6c2,0.9,33.7,0.5,35.7,0.4c4.2-0.4,8.2-4.8,8.4-8.4s0.6-16.1-0.1-19.1c-0.9-3.7-4.6-7.1-9.3-7.3
	c-3.8-0.2-31.6-0.1-34.8,0.5s-5.5,2.5-5.6,7c-0.1,4.6-0.4,20.2,0.5,21.9"/>
<path class="st2" d="M45.1,57.3c0.3,1.5,13.3-5.5,13.3-7.4c0-1.9-12.9-7.7-13.8-6.5c-0.8,1.2-0.4,10.3-0.4,10.3"/>
</svg>
