<?xml version="1.0" encoding="utf-8"?>
<!-- Generator: Adobe Illustrator 24.3.0, SVG Export Plug-In . SVG Version: 6.00 Build 0)  -->
<svg version="1.1" id="Layer_1" xmlns="http://www.w3.org/2000/svg" xmlns:xlink="http://www.w3.org/1999/xlink" x="0px" y="0px"
	 viewBox="0 0 377.9 100" style="enable-background:new 0 0 377.9 100;" xml:space="preserve">
<style type="text/css">
	.st0{font-family:'Sriracha-Regular';}
	.st1{font-size:60px;}
	.st2{fill:none;stroke:#000000;stroke-width:3;stroke-linecap:round;stroke-linejoin:round;stroke-miterlimit:10;}
	.st3{fill:none;stroke:#000000;stroke-width:5;stroke-linecap:round;stroke-linejoin:round;stroke-miterlimit:10;}
</style>
<text transform="matrix(1 0 0 1 105.6085 73.5996)" class="st0 st1">MrDarked</text>
<g>
	<path class="st2" d="M47.9,32.4c2.3-1.5,26.1-3.8,26.1-3.8s0.6,21.5,0,22.2c-0.6,0.7-25.8,1.1-26.3,0s0-15.3,0-15.3"/>
	<path class="st2" d="M43.6,32.7c-2.1-0.6-18.1,1.5-18.9,2.4s-0.9,15,0,15.7c0.9,0.7,18.7,0.7,19.6,0c0.9-0.7,0-15.9,0-15.9"/>
	<path class="st2" d="M48.3,73.3c1.2,0.7,25,4,25.7,3.7c0.7-0.2,1.2-21.3,0.1-22.1c-1.1-0.8-24.6-1.4-25.8-0.6s-0.6,15.3-0.6,15.3"
		/>
	<path class="st2" d="M43.2,72.8c-2.5,0.6-18.1-1.6-19-2.9c-0.9-1.3-0.9-14.6,0-15.5c0.9-0.8,19.2-0.8,20,0
		c0.8,0.8,0.2,15.8,0.2,15.8"/>
</g>
<path class="st3" d="M10.9,40.3c-6.1,23.6,8.6,47.6,31,52.5c21.8,4.8,43.6-10,49-31.3c5.4-21.6-7.3-45.1-28.9-51
	c-33.9-9.1-49,21.6-49,23.1"/>
</svg>
